<?xml version="1.0" encoding="UTF-8"?>
<svg version="1.1" xmlns="http://www.w3.org/2000/svg" width="128" height="128">
<path d="M0 0 C4.62634991 2.73045358 7.92031442 6.8794174 10.171875 11.703125 C11.37165615 16.78219852 11.28094395 21.72595779 11.2421875 26.92578125 C11.25378906 28.50552734 11.25378906 28.50552734 11.265625 30.1171875 C11.26304688 31.12136719 11.26046875 32.12554687 11.2578125 33.16015625 C11.25555664 34.07506836 11.25330078 34.98998047 11.25097656 35.93261719 C10.9921875 38.17578125 10.9921875 38.17578125 8.9921875 40.17578125 C6.4921875 40.42578125 6.4921875 40.42578125 3.9921875 40.17578125 C1.48715198 37.67074573 1.74237004 36.83764629 1.71875 33.37890625 C1.698125 32.41984375 1.6775 31.46078125 1.65625 30.47265625 C1.63040972 28.45711446 1.61206083 26.44146134 1.6015625 24.42578125 C1.45587726 18.37175 1.00746688 14.80471654 -3.0078125 10.17578125 C-5.07070257 8.4812644 -6.28184305 8.14633016 -8.93359375 8.25390625 C-12.09121192 8.6002629 -14.99379987 9.17111037 -18.0078125 10.17578125 C-19.85897557 13.687378 -20.2518167 16.62697028 -20.23144531 20.55761719 C-20.23194885 21.60931091 -20.23245239 22.66100464 -20.23297119 23.74456787 C-20.22570007 24.87171204 -20.21842896 25.9988562 -20.2109375 27.16015625 C-20.22148763 29.5638075 -20.23324434 31.9674537 -20.24609375 34.37109375 C-20.25639628 38.14770727 -20.25782399 41.92361404 -20.23779297 45.70019531 C-20.22297847 49.35411938 -20.24554195 53.00634117 -20.2734375 56.66015625 C-20.25806946 57.77920349 -20.24270142 58.89825073 -20.22686768 60.0512085 C-20.31071519 66.85702457 -21.39552362 70.95715561 -25.62347412 76.35406494 C-28.73942305 80.45448942 -28.58044674 85.26067065 -28.0078125 90.17578125 C-26.30411428 95.45354204 -23.78486007 99.21856133 -19.0078125 102.17578125 C-14.02278837 104.34318305 -9.2350171 105.25972783 -3.9609375 103.48828125 C1.89296189 100.84742438 5.24307668 97.42412991 8.3046875 91.73828125 C9.99632975 85.43306922 8.78476517 80.94342274 6.16015625 75.19140625 C5.1091861 73.13416698 5.1091861 73.13416698 3.43969727 71.79833984 C0.90443451 68.95648519 1.64670565 65.16715619 1.7421875 61.55078125 C1.74734375 60.761875 1.7525 59.97296875 1.7578125 59.16015625 C1.83795187 53.33001688 1.83795187 53.33001688 2.9921875 52.17578125 C5.9296875 51.98828125 5.9296875 51.98828125 8.9921875 52.17578125 C11.61845456 54.80204831 11.18572506 56.02454317 11.2421875 59.67578125 C11.60942906 65.55870859 13.25479433 69.14501356 16.6171875 73.921875 C19.5630733 78.75078439 19.60286912 84.67116495 18.9921875 90.17578125 C16.7896111 98.806529 13.61515465 104.91748659 6.1171875 109.92578125 C-0.99033459 114.05744362 -8.25382051 115.34226344 -16.30078125 113.7109375 C-24.26883416 111.39320782 -30.25905439 106.84533827 -35 100.08203125 C-38.89741398 92.71017845 -39.35812414 84.21783159 -37.21484375 76.21484375 C-34.76609905 69.81620816 -34.76609905 69.81620816 -32.45787048 67.866745 C-30.47866801 65.5587272 -30.63573307 64.11103962 -30.63891602 61.09692383 C-30.63203262 60.0618721 -30.62514923 59.02682037 -30.61805725 57.96040344 C-30.62421555 56.84167343 -30.63037384 55.72294342 -30.63671875 54.5703125 C-30.61932879 52.20117049 -30.60174449 49.83202989 -30.58398438 47.46289062 C-30.5739294 43.72808126 -30.57031017 39.99336723 -30.57202148 36.25854492 C-30.56844042 32.65384586 -30.54104585 29.04988053 -30.51171875 25.4453125 C-30.51990128 24.33670364 -30.5280838 23.22809479 -30.53651428 22.08589172 C-30.46203856 14.28761458 -29.39293989 8.65493995 -23.7578125 2.86328125 C-16.09992568 -1.83587657 -8.57254734 -3.51908072 0 0 Z " fill="#000000" transform="translate(63.0078125,7.82421875)"/>
<path d="M0 0 C2.5 0.25 2.5 0.25 4.5 2.25 C4.74050903 4.46463013 4.74050903 4.46463013 4.72705078 7.25048828 C4.72689972 8.29141632 4.72674866 9.33234436 4.72659302 10.40481567 C4.71627045 11.53192963 4.70594788 12.65904358 4.6953125 13.8203125 C4.6924826 14.97167694 4.68965271 16.12304138 4.68673706 17.30929565 C4.67551408 20.99796812 4.65040556 24.68640053 4.625 28.375 C4.61497294 30.87109025 4.60584662 33.3671843 4.59765625 35.86328125 C4.57556784 41.99226984 4.54206947 48.12111777 4.5 54.25 C5.27859375 54.5284375 6.0571875 54.806875 6.859375 55.09375 C10.69632142 56.77383305 12.65243025 59.55486051 14.5 63.25 C15.02657873 68.53305214 15.14191122 72.91862857 12.8125 77.75 C8.74765156 82.14443074 6.03610427 83.43657624 0.0625 83.6875 C-4.88555356 83.54764923 -7.73519408 82.63832532 -11.5 79.25 C-14.3550872 76.00110767 -15.38656554 73.40703148 -15.8125 69.0625 C-15.43027455 64.39934952 -14.17948753 61.07537769 -11.5 57.25 C-7.5625 54.25 -7.5625 54.25 -4.5 54.25 C-4.50444122 53.60298126 -4.50888245 52.95596252 -4.51345825 52.28933716 C-4.55759925 45.57393597 -4.58782788 38.85857578 -4.60986328 32.14306641 C-4.61994011 29.63458585 -4.63360179 27.12611708 -4.65087891 24.61767578 C-4.67505337 21.01852512 -4.68646612 17.41952933 -4.6953125 13.8203125 C-4.70563507 12.69319855 -4.71595764 11.56608459 -4.72659302 10.40481567 C-4.72674408 9.36388763 -4.72689514 8.32295959 -4.72705078 7.25048828 C-4.731492 6.33115509 -4.73593323 5.4118219 -4.74050903 4.46463013 C-4.37769302 1.12378566 -3.28667135 0.32866713 0 0 Z M-4.25 64.4375 C-6.79384351 66.99972809 -6.79384351 66.99972809 -6.4375 69.9375 C-5.61696579 72.3927942 -5.61696579 72.3927942 -3.5 74.25 C-0.39652746 74.58015665 1.65781176 74.75531294 4.375 73.125 C6.04663625 70.33893958 5.96376624 68.43011138 5.5 65.25 C3.7890789 63.27901574 3.7890789 63.27901574 1.5 62.25 C-1.69435334 61.93873822 -1.69435334 61.93873822 -4.25 64.4375 Z " fill="#000000" transform="translate(53.5,24.75)"/>
<path d="M0 0 C0.98033203 -0.01224609 1.96066406 -0.02449219 2.97070312 -0.03710938 C3.90720703 -0.03904297 4.84371094 -0.04097656 5.80859375 -0.04296875 C6.67154053 -0.04707764 7.5344873 -0.05118652 8.42358398 -0.05541992 C10.5625 0.1875 10.5625 0.1875 12.5625 2.1875 C12.8125 4.6875 12.8125 4.6875 12.5625 7.1875 C9.68654444 10.06345556 7.35701445 9.47816223 3.42382812 9.50976562 C2.50021484 9.50654297 1.57660156 9.50332031 0.625 9.5 C-0.75461914 9.52416992 -0.75461914 9.52416992 -2.16210938 9.54882812 C-3.48758789 9.54979492 -3.48758789 9.54979492 -4.83984375 9.55078125 C-5.64929443 9.55376221 -6.45874512 9.55674316 -7.29272461 9.55981445 C-9.94636616 9.09916524 -10.86320597 8.34617403 -12.4375 6.1875 C-11.67340754 -1.83547079 -6.80135476 0.00445406 0 0 Z " fill="#000000" transform="translate(90.4375,64.8125)"/>
<path d="M0 0 C0.928125 -0.01224609 1.85625 -0.02449219 2.8125 -0.03710938 C3.699375 -0.03904297 4.58625 -0.04097656 5.5 -0.04296875 C6.3146875 -0.04707764 7.129375 -0.05118652 7.96875 -0.05541992 C10 0.1875 10 0.1875 12 2.1875 C12.25 4.6875 12.25 4.6875 12 7.1875 C9.50942749 9.67807251 8.71527341 9.4440813 5.28125 9.453125 C4.34925781 9.45570312 3.41726562 9.45828125 2.45703125 9.4609375 C1.48121094 9.45320313 0.50539063 9.44546875 -0.5 9.4375 C-1.47582031 9.44523437 -2.45164062 9.45296875 -3.45703125 9.4609375 C-4.38902344 9.45835938 -5.32101563 9.45578125 -6.28125 9.453125 C-7.13783203 9.45086914 -7.99441406 9.44861328 -8.87695312 9.44628906 C-11 9.1875 -11 9.1875 -13 7.1875 C-12.75 4.125 -12.75 4.125 -12 1.1875 C-8.34657606 -0.63921197 -4.02160841 0.00279278 0 0 Z " fill="#000000" transform="translate(91,37.8125)"/>
<path d="M0 0 C1.76150391 -0.02126953 1.76150391 -0.02126953 3.55859375 -0.04296875 C6.5625 0.1875 6.5625 0.1875 8.5625 2.1875 C8.8125 4.6875 8.8125 4.6875 8.5625 7.1875 C5.87148766 9.87851234 4.37174054 9.48637549 0.625 9.5 C-0.43589844 9.51675781 -1.49679688 9.53351562 -2.58984375 9.55078125 C-5.4375 9.1875 -5.4375 9.1875 -7.33203125 7.83203125 C-8.4375 6.1875 -8.4375 6.1875 -8.1875 3.5625 C-6.75687001 -0.96782831 -4.44724587 0.02435513 0 0 Z " fill="#000000" transform="translate(86.4375,24.8125)"/>
<path d="M0 0 C1.27875 0.00257812 2.5575 0.00515625 3.875 0.0078125 C5.15375 0.00523438 6.4325 0.00265625 7.75 0 C10.875 0.1328125 10.875 0.1328125 11.875 1.1328125 C12 4.1328125 12 4.1328125 11.875 7.1328125 C9.94158053 9.06623197 6.50020879 8.30730383 3.9375 8.3203125 C2.67035156 8.33449219 1.40320313 8.34867188 0.09765625 8.36328125 C-3.125 8.1328125 -3.125 8.1328125 -5.125 6.1328125 C-4.3999004 0.18699577 -4.3999004 0.18699577 0 0 Z " fill="#000000" transform="translate(83.125,51.8671875)"/>
</svg>
